<?xml version="1.0" encoding="UTF-8"?>
<svg xmlns="http://www.w3.org/2000/svg" xmlns:xlink="http://www.w3.org/1999/xlink" width="225.4pt" height="136.4pt" viewBox="0 0 225.4 136.4" version="1.1">
<defs>
<clipPath id="clip1">
  <path d="M 195 51 L 225.398438 51 L 225.398438 74 L 195 74 Z M 195 51 "/>
</clipPath>
<clipPath id="clip2">
  <path d="M 196 24 L 225.398438 24 L 225.398438 49 L 196 49 Z M 196 24 "/>
</clipPath>
<clipPath id="clip3">
  <path d="M 3 116 L 224 116 L 224 136.398438 L 3 136.398438 Z M 3 116 "/>
</clipPath>
</defs>
<g id="surface1">
<path style=" stroke:none;fill-rule:evenodd;fill:rgb(2.352905%,57.226563%,80.859375%);fill-opacity:1;" d="M 216.984375 76.363281 C 208.625 88.617188 194.8125 96.964844 178.96875 98.039063 C 185.195313 90.8125 190.207031 83.589844 193.902344 76.363281 Z M 216.984375 76.363281 "/>
<path style=" stroke:none;fill-rule:evenodd;fill:rgb(1.567078%,29.80957%,52.146912%);fill-opacity:1;" d="M 53.71875 -0.0390625 C 69.445313 1.117188 83.144531 9.445313 91.445313 21.632813 L 69.449219 21.632813 C 65.824219 14.40625 60.617188 7.183594 53.71875 -0.0390625 Z M 93.292969 24.558594 C 97.34375 31.511719 99.71875 39.535156 99.871094 48.089844 L 75.851563 48.089844 C 75.9375 40.246094 74.3125 32.402344 70.835938 24.558594 Z M 99.839844 51.015625 C 99.503906 59.15625 97.160156 66.785156 93.28125 73.433594 L 69.777344 73.433594 C 73.230469 65.964844 75.253906 58.488281 75.738281 51.015625 Z M 91.433594 76.363281 C 83.074219 88.617188 69.261719 96.964844 53.417969 98.039063 C 59.644531 90.8125 64.65625 83.589844 68.351563 76.363281 Z M 48.472656 95.90625 C 42.886719 89.390625 38.332031 82.878906 34.878906 76.363281 L 48.472656 76.363281 Z M 33.402344 73.433594 C 29.824219 65.964844 27.71875 58.488281 27.21875 51.015625 L 48.472656 51.015625 L 48.472656 73.433594 Z M 27.105469 48.089844 C 27.023438 40.246094 28.722656 32.402344 32.351563 24.558594 L 48.472656 24.558594 L 48.472656 48.089844 Z M 33.796875 21.632813 C 37.269531 15.007813 42.132813 8.386719 48.472656 1.765625 L 48.472656 21.632813 Z M 51.402344 1.757813 C 57.746094 8.382813 62.609375 15.007813 66.082031 21.632813 L 51.402344 21.632813 Z M 67.527344 24.558594 C 71.15625 32.402344 72.859375 40.246094 72.773438 48.089844 L 51.402344 48.089844 L 51.402344 24.558594 Z M 72.660156 51.015625 C 72.160156 58.488281 70.058594 65.964844 66.480469 73.433594 L 51.402344 73.433594 L 51.402344 51.015625 Z M 65.003906 76.363281 C 61.550781 82.878906 56.988281 89.394531 51.402344 95.910156 L 51.402344 76.363281 Z M 46.460938 98.042969 C 30.613281 96.96875 16.800781 88.621094 8.441406 76.363281 L 31.523438 76.363281 C 35.21875 83.589844 40.230469 90.816406 46.460938 98.042969 Z M 6.59375 73.433594 C 2.714844 66.78125 0.371094 59.152344 0.0351563 51.015625 L 24.136719 51.015625 C 24.621094 58.488281 26.644531 65.964844 30.097656 73.433594 Z M 0.00390625 48.089844 C 0.15625 39.535156 2.53125 31.511719 6.582031 24.558594 L 29.039063 24.558594 C 25.5625 32.402344 23.9375 40.246094 24.023438 48.089844 Z M 8.425781 21.632813 C 16.730469 9.4375 30.429688 1.109375 46.160156 -0.0507813 C 39.261719 7.179688 34.054688 14.40625 30.425781 21.632813 Z M 8.425781 21.632813 "/>
<path style=" stroke:none;fill-rule:evenodd;fill:rgb(2.352905%,57.226563%,80.859375%);fill-opacity:1;" d="M 190.554688 76.363281 C 187.101563 82.878906 182.539063 89.394531 176.953125 95.910156 L 176.953125 76.363281 Z M 190.554688 76.363281 "/>
<path style=" stroke:none;fill-rule:evenodd;fill:rgb(2.352905%,57.226563%,80.859375%);fill-opacity:1;" d="M 198.210938 51.015625 C 197.710938 58.488281 195.609375 65.964844 192.03125 73.433594 L 176.953125 73.433594 L 176.953125 51.015625 Z M 198.210938 51.015625 "/>
<path style=" stroke:none;fill-rule:evenodd;fill:rgb(2.352905%,57.226563%,80.859375%);fill-opacity:1;" d="M 193.078125 24.558594 C 196.707031 32.402344 198.410156 40.246094 198.324219 48.089844 L 176.953125 48.089844 L 176.953125 24.558594 Z M 193.078125 24.558594 "/>
<path style=" stroke:none;fill-rule:evenodd;fill:rgb(2.352905%,57.226563%,80.859375%);fill-opacity:1;" d="M 176.953125 1.757813 C 183.296875 8.382813 188.160156 15.007813 191.632813 21.632813 L 176.953125 21.632813 Z M 176.953125 1.757813 "/>
<path style=" stroke:none;fill-rule:evenodd;fill:rgb(2.352905%,57.226563%,80.859375%);fill-opacity:1;" d="M 151.953125 5.601563 C 157.921875 2.464844 164.609375 0.472656 171.710938 -0.0507813 C 167.449219 4.421875 163.832031 8.886719 160.832031 13.351563 C 158.074219 10.53125 155.070313 7.964844 151.953125 5.601563 Z M 151.953125 5.601563 "/>
<path style=" stroke:none;fill-rule:evenodd;fill:rgb(2.352905%,57.226563%,80.859375%);fill-opacity:1;" d="M 162.910156 15.585938 C 165.917969 10.976563 169.613281 6.371094 174.023438 1.765625 L 174.023438 21.632813 L 167.59375 21.632813 C 166.175781 19.503906 164.601563 17.484375 162.910156 15.585938 Z M 162.910156 15.585938 "/>
<path style=" stroke:none;fill-rule:evenodd;fill:rgb(2.352905%,57.226563%,80.859375%);fill-opacity:1;" d="M 169.402344 24.558594 L 174.023438 24.558594 L 174.023438 36.179688 C 173.007813 31.96875 171.417969 28.109375 169.402344 24.558594 Z M 169.402344 24.558594 "/>
<g clip-path="url(#clip1)" clip-rule="nonzero">
<path style=" stroke:none;fill-rule:evenodd;fill:rgb(2.352905%,57.226563%,80.859375%);fill-opacity:1;" d="M 225.390625 51.015625 C 225.054688 59.15625 222.710938 66.785156 218.832031 73.433594 L 195.328125 73.433594 C 198.78125 65.964844 200.804688 58.488281 201.289063 51.015625 Z M 225.390625 51.015625 "/>
</g>
<g clip-path="url(#clip2)" clip-rule="nonzero">
<path style=" stroke:none;fill-rule:evenodd;fill:rgb(2.352905%,57.226563%,80.859375%);fill-opacity:1;" d="M 218.84375 24.558594 C 222.894531 31.511719 225.269531 39.535156 225.421875 48.089844 L 201.402344 48.089844 C 201.488281 40.246094 199.863281 32.402344 196.386719 24.558594 Z M 218.84375 24.558594 "/>
</g>
<path style=" stroke:none;fill-rule:evenodd;fill:rgb(2.352905%,57.226563%,80.859375%);fill-opacity:1;" d="M 179.269531 -0.0390625 C 194.996094 1.117188 208.695313 9.445313 216.996094 21.632813 L 195 21.632813 C 191.375 14.40625 186.167969 7.183594 179.269531 -0.0390625 Z M 179.269531 -0.0390625 "/>
<path style=" stroke:none;fill-rule:evenodd;fill:rgb(2.352905%,41.575623%,64.646912%);fill-opacity:1;" d="M 126.816406 -0.0390625 C 142.539063 1.117188 156.238281 9.445313 164.542969 21.632813 L 142.542969 21.632813 C 138.917969 14.40625 133.710938 7.183594 126.816406 -0.0390625 Z M 166.386719 24.558594 C 170.4375 31.511719 172.8125 39.535156 172.96875 48.089844 L 148.945313 48.089844 C 149.03125 40.246094 147.40625 32.402344 143.929688 24.558594 Z M 172.933594 51.015625 C 172.597656 59.15625 170.253906 66.785156 166.375 73.433594 L 142.875 73.433594 C 146.324219 65.964844 148.347656 58.488281 148.835938 51.015625 Z M 164.527344 76.363281 C 156.167969 88.617188 142.359375 96.964844 126.511719 98.039063 C 132.738281 90.8125 137.753906 83.589844 141.449219 76.363281 Z M 121.570313 95.90625 C 115.984375 89.390625 111.425781 82.878906 107.972656 76.363281 L 121.570313 76.363281 Z M 106.496094 73.433594 C 102.917969 65.964844 100.816406 58.488281 100.316406 51.015625 L 121.570313 51.015625 L 121.570313 73.433594 Z M 100.199219 48.089844 C 100.117188 40.246094 101.816406 32.402344 105.449219 24.558594 L 121.570313 24.558594 L 121.570313 48.089844 Z M 106.894531 21.632813 C 110.367188 15.007813 115.226563 8.386719 121.570313 1.765625 L 121.570313 21.632813 Z M 124.496094 1.757813 C 130.839844 8.382813 135.703125 15.007813 139.175781 21.632813 L 124.496094 21.632813 Z M 140.621094 24.558594 C 144.253906 32.402344 145.953125 40.246094 145.871094 48.089844 L 124.496094 48.089844 L 124.496094 24.558594 Z M 145.753906 51.015625 C 145.253906 58.488281 143.152344 65.964844 139.574219 73.433594 L 124.496094 73.433594 L 124.496094 51.015625 Z M 138.097656 76.363281 C 134.644531 82.878906 130.085938 89.394531 124.496094 95.910156 L 124.496094 76.363281 Z M 119.554688 98.042969 C 107.945313 97.257813 97.429688 92.566406 89.347656 85.292969 C 91.996094 82.464844 94.4375 79.542969 96.414063 76.363281 L 104.617188 76.363281 C 108.3125 83.589844 113.328125 90.816406 119.554688 98.042969 Z M 100.5 66.78125 C 101.269531 69.003906 102.167969 71.214844 103.191406 73.433594 L 98.054688 73.433594 C 99.097656 71.347656 99.933594 69.144531 100.5 66.78125 Z M 97.679688 24.558594 L 102.132813 24.558594 C 101.316406 26.410156 100.597656 28.257813 99.980469 30.109375 C 99.386719 28.160156 98.609375 26.316406 97.679688 24.558594 Z M 88.984375 13.007813 C 97.042969 5.613281 107.59375 0.808594 119.257813 -0.0507813 C 112.355469 7.179688 107.148438 14.40625 103.519531 21.632813 L 95.960938 21.632813 C 93.980469 18.574219 91.578125 15.753906 88.984375 13.007813 Z M 88.984375 13.007813 "/>
<path style=" stroke:none;fill-rule:evenodd;fill:rgb(2.352905%,57.226563%,80.859375%);fill-opacity:1;" d="M 151.953125 92.386719 C 157.921875 95.53125 164.609375 97.515625 171.710938 98.039063 C 167.449219 93.570313 163.832031 89.105469 160.832031 84.636719 C 158.074219 87.460938 155.070313 90.027344 151.953125 92.386719 Z M 151.953125 92.386719 "/>
<path style=" stroke:none;fill-rule:evenodd;fill:rgb(2.352905%,57.226563%,80.859375%);fill-opacity:1;" d="M 162.910156 82.40625 C 165.917969 87.011719 169.613281 91.617188 174.023438 96.222656 L 174.023438 76.355469 L 167.59375 76.355469 C 166.175781 78.488281 164.601563 80.503906 162.910156 82.40625 Z M 162.910156 82.40625 "/>
<path style=" stroke:none;fill-rule:evenodd;fill:rgb(2.352905%,57.226563%,80.859375%);fill-opacity:1;" d="M 169.402344 73.429688 L 174.023438 73.429688 L 174.023438 61.8125 C 173.007813 66.023438 171.417969 69.878906 169.402344 73.429688 Z M 169.402344 73.429688 "/>
<g clip-path="url(#clip3)" clip-rule="nonzero">
<path style=" stroke:none;fill-rule:evenodd;fill:rgb(10.594177%,9.812927%,9.423828%);fill-opacity:1;" d="M 3.773438 129.777344 L 3.773438 130.691406 C 3.773438 133.402344 4.230469 134.542969 5.660156 135.34375 C 7.03125 136.113281 9.402344 136.375 15.089844 136.375 C 20.976563 136.375 23.320313 136.199219 24.492188 135.714844 C 26.351563 134.972656 27.09375 133.347656 27.09375 130.125 C 27.09375 127.382813 26.578125 126.097656 25.179688 125.269531 C 23.976563 124.554688 22.691406 124.386719 16.546875 124.214844 C 12.375 124.097656 10.890625 124.015625 10.375 123.871094 C 9.832031 123.699219 9.574219 123.332031 9.574219 122.644531 C 9.574219 121.246094 9.972656 121.132813 14.863281 121.132813 C 19.234375 121.132813 19.890625 121.1875 20.347656 121.558594 C 20.664063 121.84375 20.75 122.101563 20.777344 123.042969 L 26.378906 123.042969 C 26.40625 122.671875 26.40625 122.273438 26.40625 122.160156 C 26.40625 119.820313 25.894531 118.589844 24.664063 117.820313 C 23.292969 117.023438 21.292969 116.765625 15.976563 116.765625 C 9.089844 116.765625 7.429688 116.9375 5.945313 117.734375 C 4.601563 118.476563 3.945313 120.191406 3.945313 123.015625 C 3.945313 124.925781 4.285156 126.15625 5 127.011719 C 5.859375 127.980469 7.203125 128.378906 9.972656 128.464844 C 10.574219 128.464844 12.519531 128.550781 14.605469 128.667969 C 16.632813 128.75 18.519531 128.835938 19.148438 128.835938 C 21.007813 128.867188 21.464844 129.152344 21.464844 130.292969 C 21.464844 131.089844 21.261719 131.519531 20.835938 131.71875 C 20.292969 131.949219 19.632813 131.976563 15.234375 131.976563 C 11.144531 131.976563 10.515625 131.917969 9.972656 131.582031 C 9.515625 131.292969 9.402344 130.921875 9.402344 129.777344 Z M 29.007813 117.050781 L 29.007813 125.8125 C 29.035156 129.007813 29.035156 129.007813 29.09375 129.777344 C 29.238281 132.402344 29.550781 133.515625 30.464844 134.460938 C 31.894531 135.972656 34.238281 136.375 41.46875 136.375 C 45.785156 136.375 47.8125 136.257813 49.527344 135.914063 C 51.699219 135.460938 53.160156 133.945313 53.472656 131.777344 C 53.644531 130.433594 53.671875 130.125 53.757813 125.8125 L 53.757813 117.050781 L 47.957031 117.050781 L 47.957031 125.8125 C 47.957031 126.238281 47.929688 127.210938 47.898438 127.925781 C 47.785156 129.582031 47.671875 130.09375 47.214844 130.582031 C 46.585938 131.261719 45.355469 131.433594 41.382813 131.433594 C 36.4375 131.433594 35.324219 131.125 35.011719 129.609375 C 34.867188 128.835938 34.867188 128.808594 34.808594 125.8125 L 34.808594 117.050781 Z M 74.449219 128.75 C 74.421875 131.582031 74.335938 131.605469 67.992188 131.605469 C 61.847656 131.605469 61.761719 131.519531 61.761719 126.667969 C 61.761719 123.8125 61.988281 122.671875 62.675781 122.128906 C 63.277344 121.644531 64.332031 121.53125 67.933594 121.53125 C 69.25 121.53125 70.964844 121.589844 71.878906 121.644531 C 73.136719 121.730469 73.59375 121.878906 73.820313 122.1875 C 74.050781 122.503906 74.109375 122.757813 74.164063 123.871094 L 79.964844 123.871094 L 79.964844 122.929688 C 79.964844 119.789063 79.335938 118.390625 77.59375 117.5625 C 76.308594 116.9375 74.480469 116.765625 69.589844 116.765625 C 59.816406 116.765625 57.644531 117.253906 56.558594 119.648438 C 56.101563 120.730469 55.957031 122.335938 55.957031 126.695313 C 55.957031 128.894531 56.015625 130.519531 56.074219 131.375 C 56.300781 133.515625 56.929688 134.628906 58.332031 135.34375 C 59.902344 136.144531 62.304688 136.375 69.5625 136.375 C 73.9375 136.375 76.050781 136.171875 77.59375 135.65625 C 79.566406 134.945313 80.335938 133.546875 80.335938 130.550781 C 80.335938 130.265625 80.308594 129.835938 80.28125 128.75 Z M 95.113281 116.765625 C 87.195313 116.765625 85.367188 116.992188 83.910156 118.082031 C 82.480469 119.191406 82.023438 121.160156 82.023438 126.441406 C 82.023438 132.003906 82.453125 133.917969 83.910156 135.058594 C 85.367188 136.144531 87.226563 136.375 95.171875 136.375 C 103 136.375 104.859375 136.144531 106.316406 135.058594 C 107.773438 133.917969 108.203125 132.039063 108.203125 126.554688 C 108.203125 121.101563 107.773438 119.191406 106.316406 118.082031 C 104.859375 116.992188 103.03125 116.765625 95.113281 116.765625 Z M 95.113281 121.707031 C 100.457031 121.707031 101.144531 121.789063 101.742188 122.617188 C 102.230469 123.273438 102.402344 124.386719 102.402344 127.097656 C 102.402344 129.378906 102.203125 130.234375 101.542969 130.75 C 100.800781 131.320313 99.773438 131.433594 95.171875 131.433594 C 90.453125 131.433594 89.425781 131.320313 88.683594 130.75 C 87.996094 130.207031 87.824219 129.4375 87.824219 127.066406 C 87.824219 124.554688 87.941406 123.503906 88.339844 122.816406 C 88.910156 121.789063 89.511719 121.707031 95.113281 121.707031 Z M 110.488281 117.050781 L 110.488281 136.085938 L 116.292969 136.085938 L 116.292969 129.492188 L 129.925781 129.492188 L 129.925781 125.128906 L 116.292969 125.128906 L 116.292969 121.53125 L 130.636719 121.53125 L 130.636719 117.050781 Z M 131.953125 136.085938 L 138.039063 136.085938 L 138.039063 117.050781 L 131.953125 117.050781 Z M 140.726563 117.050781 L 140.726563 136.085938 L 146.644531 136.085938 L 146.5 121.902344 L 147.128906 121.902344 L 157.160156 136.085938 L 167.25 136.085938 L 167.25 117.050781 L 161.332031 117.050781 L 161.476563 131.234375 L 160.875 131.234375 L 150.902344 117.050781 Z M 169.90625 136.085938 L 183.652344 136.085938 C 190.085938 136.085938 191.769531 135.800781 193.226563 134.488281 C 194.628906 133.207031 195.058594 131.261719 195.058594 126.296875 C 195.058594 123.214844 194.941406 121.988281 194.515625 120.644531 C 193.941406 118.878906 192.683594 117.792969 190.796875 117.421875 C 189.167969 117.082031 188.511719 117.050781 183.652344 117.050781 L 169.90625 117.050781 Z M 175.621094 131.234375 L 175.621094 121.816406 L 183.652344 121.816406 C 187.199219 121.816406 187.96875 121.929688 188.570313 122.617188 C 189.140625 123.242188 189.339844 124.300781 189.339844 126.640625 C 189.339844 130.949219 188.96875 131.234375 183.710938 131.234375 Z M 210.03125 116.765625 C 202.117188 116.765625 200.289063 116.992188 198.828125 118.082031 C 197.402344 119.191406 196.941406 121.160156 196.941406 126.441406 C 196.941406 132.003906 197.371094 133.917969 198.828125 135.058594 C 200.289063 136.144531 202.144531 136.375 210.089844 136.375 C 217.921875 136.375 219.777344 136.144531 221.238281 135.058594 C 222.695313 133.917969 223.121094 132.039063 223.121094 126.554688 C 223.121094 121.101563 222.695313 119.191406 221.238281 118.082031 C 219.777344 116.992188 217.949219 116.765625 210.03125 116.765625 Z M 210.03125 121.707031 C 215.378906 121.707031 216.0625 121.789063 216.664063 122.617188 C 217.148438 123.273438 217.320313 124.386719 217.320313 127.097656 C 217.320313 129.378906 217.121094 130.234375 216.464844 130.75 C 215.71875 131.320313 214.691406 131.433594 210.089844 131.433594 C 205.375 131.433594 204.34375 131.320313 203.601563 130.75 C 202.917969 130.207031 202.746094 129.4375 202.746094 127.066406 C 202.746094 124.554688 202.859375 123.503906 203.257813 122.816406 C 203.832031 121.789063 204.429688 121.707031 210.03125 121.707031 Z M 210.03125 121.707031 "/>
</g>
</g>
</svg>
